<svg id="Layer_1" data-name="Layer 1" xmlns="http://www.w3.org/2000/svg" viewBox="0 0 500 500"><defs><style>.cls-1{fill:#fff;}</style></defs><title>Codefin logo</title><circle cx="12.5" cy="12.5" r="12.5"/><path class="cls-1" d="M18.7,9.86l-.35-.62,0-.08h1.85c.07,0,.19,0,.22-.09a.26.26,0,0,0,0-.24L19.23,7l-1-1.69a.29.29,0,0,0-.28-.16h-4a.31.31,0,0,0-.24.07.29.29,0,0,0,0,.26l.21.71c.63,2.12,1.28,4.31,1.93,6.46a.31.31,0,0,1,0,.23c-.6,1.13-1.08,2.06-1.51,2.9a.14.14,0,0,1-.15.09h0c-1.14,0-2.18,0-3.15,0h0a.14.14,0,0,1-.15-.09c-.49-1-1-1.95-1.51-2.94a.23.23,0,0,1,0-.2l2.07-7,.06-.2a.26.26,0,0,0,0-.23.25.25,0,0,0-.22-.08h-4a.31.31,0,0,0-.27.15L5.92,6.84c-.39.64-.8,1.31-1.21,2a.35.35,0,0,0,0,.26c0,.09.24.09.24.09H6.74a.56.56,0,0,1,0,.08L6.28,10c-.53.92-1.08,1.88-1.63,2.81a.32.32,0,0,0,0,.36l3.76,6.53a.33.33,0,0,0,.32.18h7.52a.33.33,0,0,0,.32-.18l3.76-6.53a.32.32,0,0,0,0-.36ZM6.87,6V8.79H5.15ZM9,19.46A.75.75,0,0,0,9,19.34l.42-.72,1.32-2.3a.14.14,0,0,1,.15-.09h3.18a.13.13,0,0,1,.14.07c.45.79.91,1.59,1.36,2.36l.45.79H9ZM7.25,8.56v-3h3.48ZM10.87,5.9,9,12.29,7.29,9Zm-.42,10.23L8.63,19.28,5.24,13.4Zm-.17-.51L5,12.88l2-3.52Zm7.91-6.83V6l1.72,2.78Zm1.57,4.61-3.39,5.88-1.82-3.15Zm.22-.52-5.26,2.74L18,9.36Zm-5.7-7.34H17.8v3ZM16,12.31,14.13,5.89,17.76,9Z"/></svg>