<svg id="Layer_1" data-name="Layer 1" xmlns="http://www.w3.org/2000/svg" viewBox="0 0 1500 844"><title>Codefin logo</title><path d="M272.32,404.45a20.54,20.54,0,0,1-5.95,7,26.26,26.26,0,0,1-8.7,4.2,38.34,38.34,0,0,1-10.45,1.4h-18.9v26.1h-5.2v-70h25.4a35.93,35.93,0,0,1,10.55,1.45,24.54,24.54,0,0,1,8.2,4.2,19,19,0,0,1,5.35,6.7,20.58,20.58,0,0,1,1.9,9.05v.2A20.55,20.55,0,0,1,272.32,404.45Zm-3-9.6a16.65,16.65,0,0,0-1.55-7.39,14.42,14.42,0,0,0-4.35-5.29,20.15,20.15,0,0,0-6.7-3.21,31.37,31.37,0,0,0-8.6-1.11h-19.8v34.5h19.2a30.56,30.56,0,0,0,8.9-1.21,20.19,20.19,0,0,0,6.85-3.47,16.05,16.05,0,0,0,4.45-5.48,15.8,15.8,0,0,0,1.6-7.14Z"/><path d="M335.27,427.85a26.63,26.63,0,0,1-5.5,8.5,26.34,26.34,0,0,1-8.35,5.85,25.44,25.44,0,0,1-10.5,2.15,25.11,25.11,0,0,1-10.45-2.15,26.65,26.65,0,0,1-8.25-5.75,26,26,0,0,1-5.45-8.4,26.84,26.84,0,0,1-1.95-10.2v-.2a26.77,26.77,0,0,1,7.45-18.7,26.34,26.34,0,0,1,8.35-5.85,25.44,25.44,0,0,1,10.5-2.15,25.11,25.11,0,0,1,10.45,2.15,26.65,26.65,0,0,1,8.25,5.75,26,26,0,0,1,5.45,8.4,26.84,26.84,0,0,1,2,10.2v.2A26.84,26.84,0,0,1,335.27,427.85ZM332,417.65a23.08,23.08,0,0,0-1.61-8.61,21.49,21.49,0,0,0-4.47-7,20.78,20.78,0,0,0-6.73-4.68,20.71,20.71,0,0,0-23.31,4.73,21,21,0,0,0-4.32,6.92,23,23,0,0,0-1.56,8.46v.2a23.08,23.08,0,0,0,1.61,8.61,21.49,21.49,0,0,0,4.47,7,20.63,20.63,0,0,0,15,6.37,20.23,20.23,0,0,0,8.39-1.74,20.52,20.52,0,0,0,6.63-4.68,21.44,21.44,0,0,0,4.32-6.92,23,23,0,0,0,1.56-8.46Z"/><path d="M403,443.55h-4.2l-15.2-43.7-15.3,43.7h-4.2l-18.7-51.4h5.5l15.4,44.8,15.4-45h3.9L401,437l15.4-44.8h5.3Z"/><path d="M437.23,428.11a21.88,21.88,0,0,0,4.51,6.27,18.65,18.65,0,0,0,6.17,3.93,19.94,19.94,0,0,0,7.26,1.34,20.82,20.82,0,0,0,10.18-2.3,29.8,29.8,0,0,0,7.37-5.7l3.4,3a35.59,35.59,0,0,1-8.86,7A25.09,25.09,0,0,1,455,444.35a24.76,24.76,0,0,1-9.57-1.9,24.35,24.35,0,0,1-8-5.4,25.32,25.32,0,0,1-5.46-8.4,28.48,28.48,0,0,1-2-10.9v-.2a28.84,28.84,0,0,1,1.85-10.35,26.54,26.54,0,0,1,5.1-8.45,24.39,24.39,0,0,1,7.65-5.7,22,22,0,0,1,9.6-2.1,22.23,22.23,0,0,1,9.7,2.05,21.81,21.81,0,0,1,7.35,5.65,25.84,25.84,0,0,1,4.7,8.45,32.55,32.55,0,0,1,1.65,10.55v1.1a5.6,5.6,0,0,1-.1.9h-42.3A22.14,22.14,0,0,0,437.23,428.11Zm35.09-12.86a29.21,29.21,0,0,0-1.55-7.45,20.81,20.81,0,0,0-3.51-6.3,16.87,16.87,0,0,0-5.57-4.4,18.27,18.27,0,0,0-14.84-.15,17.72,17.72,0,0,0-5.76,4.15,22.3,22.3,0,0,0-4.06,6.3,23.49,23.49,0,0,0-1.91,7.85Z"/><path d="M518.82,396.75a21.84,21.84,0,0,0-8.4,1.65,20,20,0,0,0-7.05,4.9,24,24,0,0,0-4.85,8,30.81,30.81,0,0,0-1.8,10.95v20.9h-4.9v-51h4.9v14.5a28.78,28.78,0,0,1,3.8-6.3,25.34,25.34,0,0,1,5.2-5,21.92,21.92,0,0,1,6.35-3.1,22.61,22.61,0,0,1,7.25-.95v5.4Z"/><path d="M533.13,428.11a21.88,21.88,0,0,0,4.51,6.27,18.65,18.65,0,0,0,6.17,3.93,19.94,19.94,0,0,0,7.26,1.34,20.82,20.82,0,0,0,10.18-2.3,29.8,29.8,0,0,0,7.37-5.7l3.4,3a35.59,35.59,0,0,1-8.86,7,25.09,25.09,0,0,1-12.28,2.75,24.76,24.76,0,0,1-9.57-1.9,24.35,24.35,0,0,1-8-5.4,25.32,25.32,0,0,1-5.46-8.4,28.48,28.48,0,0,1-2-10.9v-.2a28.84,28.84,0,0,1,1.85-10.35,26.54,26.54,0,0,1,5.1-8.45,24.39,24.39,0,0,1,7.65-5.7A22,22,0,0,1,550,391a22.23,22.23,0,0,1,9.7,2.05,21.81,21.81,0,0,1,7.35,5.65,25.84,25.84,0,0,1,4.7,8.45,32.55,32.55,0,0,1,1.65,10.55v1.1a5.6,5.6,0,0,1-.1.9H531A22.14,22.14,0,0,0,533.13,428.11Zm35.09-12.86a29.21,29.21,0,0,0-1.55-7.45,20.81,20.81,0,0,0-3.51-6.3,16.87,16.87,0,0,0-5.57-4.4,18.27,18.27,0,0,0-14.84-.15A17.82,17.82,0,0,0,537,401.1a22.52,22.52,0,0,0-4.06,6.3,23.49,23.49,0,0,0-1.91,7.85Z"/><path d="M630.22,443.15v-11.4a45,45,0,0,1-3.75,4.8,23.4,23.4,0,0,1-10.3,6.75,21.89,21.89,0,0,1-6.95,1.05,23.94,23.94,0,0,1-9.05-1.8,24.38,24.38,0,0,1-7.95-5.2,25.85,25.85,0,0,1-5.65-8.35,27.79,27.79,0,0,1-2.15-11.15v-.2a27.79,27.79,0,0,1,2.15-11.15,26.41,26.41,0,0,1,5.65-8.4,24.67,24.67,0,0,1,7.95-5.3,23.86,23.86,0,0,1,16.05-.85,22.55,22.55,0,0,1,5.75,2.7,25.73,25.73,0,0,1,4.6,3.9,36.45,36.45,0,0,1,3.65,4.6v-33h4.9v73Zm.3-25.6a22.43,22.43,0,0,0-1.75-8.95,21.17,21.17,0,0,0-11.33-11.35,19.62,19.62,0,0,0-7.77-1.6,20.54,20.54,0,0,0-7.87,1.5,18.54,18.54,0,0,0-6.37,4.3,20.2,20.2,0,0,0-4.26,6.85,25.52,25.52,0,0,0-1.55,9.15v.2a25,25,0,0,0,1.6,9.1,20.73,20.73,0,0,0,4.37,6.95,19.16,19.16,0,0,0,6.41,4.4,19.71,19.71,0,0,0,15.44-.05,21.22,21.22,0,0,0,6.67-4.5,22.32,22.32,0,0,0,4.66-6.9,22.09,22.09,0,0,0,1.75-8.9Z"/><path d="M732.27,428.8a26.41,26.41,0,0,1-5.65,8.4,24.89,24.89,0,0,1-8,5.3,23.86,23.86,0,0,1-16,.85,22.39,22.39,0,0,1-5.75-2.7,25.39,25.39,0,0,1-4.6-3.9,35.57,35.57,0,0,1-3.65-4.6v11h-4.9v-73h4.9v33.4a34.57,34.57,0,0,1,3.7-4.8,25.23,25.23,0,0,1,4.65-4,23.89,23.89,0,0,1,5.7-2.75,21.89,21.89,0,0,1,7-1.05,24,24,0,0,1,9,1.8,24.59,24.59,0,0,1,8,5.2,25.85,25.85,0,0,1,5.65,8.35,27.79,27.79,0,0,1,2.15,11.15v.2A27.79,27.79,0,0,1,732.27,428.8Zm-3-11.15a24.77,24.77,0,0,0-1.61-9.1,20.56,20.56,0,0,0-4.36-6.95,19.16,19.16,0,0,0-6.41-4.4,19.71,19.71,0,0,0-15.44.05,21.11,21.11,0,0,0-6.67,4.5,22.32,22.32,0,0,0-4.66,6.9,21.92,21.92,0,0,0-1.75,8.9v.2a22.26,22.26,0,0,0,1.75,8.95,21.17,21.17,0,0,0,11.33,11.35,19.62,19.62,0,0,0,7.77,1.6,20.54,20.54,0,0,0,7.87-1.5,18.54,18.54,0,0,0,6.37-4.3,20,20,0,0,0,4.25-6.85,25.3,25.3,0,0,0,1.56-9.15Z"/><path d="M770.42,445q-3.4,8-7.45,11.25a14.85,14.85,0,0,1-9.55,3.25,22.16,22.16,0,0,1-5.2-.56,31.11,31.11,0,0,1-4.9-1.69l1.7-4.35a18.27,18.27,0,0,0,3.9,1.45,21.24,21.24,0,0,0,4.8.45,11.09,11.09,0,0,0,3.7-.6,8.84,8.84,0,0,0,3.2-2,18.81,18.81,0,0,0,2.9-3.74,45.28,45.28,0,0,0,2.8-5.59l-24.5-50.62h5.7l21.2,45.6,18.4-45.6h5.4Z"/><path d="M932.94,608.3a25.84,25.84,0,0,1-11.07,5.14,36.35,36.35,0,0,1-7.33.68,29,29,0,0,1-11.39-2.23,28.07,28.07,0,0,1-9.08-6.1,27.55,27.55,0,0,1-6-9.12A29.24,29.24,0,0,1,886,585.44v-.16a29,29,0,0,1,2.15-11.19,28.68,28.68,0,0,1,6-9.16,27.6,27.6,0,0,1,9.16-6.21A29.72,29.72,0,0,1,915,556.45a37.31,37.31,0,0,1,7.13.63,29.54,29.54,0,0,1,5.85,1.76,24.39,24.39,0,0,1,4.86,2.71,33.25,33.25,0,0,1,4.15,3.5l-7.81,9a30,30,0,0,0-6.65-4.62,17,17,0,0,0-7.61-1.67,15.39,15.39,0,0,0-11.63,5.1,17.29,17.29,0,0,0-3.34,5.53,18.73,18.73,0,0,0-1.2,6.73v.16a19,19,0,0,0,1.2,6.77,17.58,17.58,0,0,0,3.3,5.58,15.5,15.5,0,0,0,5.1,3.78,15.33,15.33,0,0,0,6.57,1.4,17.09,17.09,0,0,0,8.09-1.76,31.18,31.18,0,0,0,6.57-4.78l7.8,7.89A40,40,0,0,1,932.94,608.3Z"/><path d="M1001.76,596.47a28.54,28.54,0,0,1-15.57,15.38,30.78,30.78,0,0,1-11.91,2.27,30.47,30.47,0,0,1-11.87-2.27,29.6,29.6,0,0,1-9.36-6.14,27.48,27.48,0,0,1-6.13-9.08,28.63,28.63,0,0,1-2.19-11.19v-.16A28.12,28.12,0,0,1,947,574.09a29.06,29.06,0,0,1,6.17-9.16,28.75,28.75,0,0,1,9.4-6.21,30.6,30.6,0,0,1,11.91-2.27,30.29,30.29,0,0,1,11.87,2.27,29.57,29.57,0,0,1,9.36,6.13,27.43,27.43,0,0,1,6.13,9.08,28.63,28.63,0,0,1,2.19,11.19v.16A28.09,28.09,0,0,1,1001.76,596.47Zm-10.59-11.19a18.45,18.45,0,0,0-1.24-6.77,16.72,16.72,0,0,0-8.88-9.36,16.34,16.34,0,0,0-6.77-1.39,16.76,16.76,0,0,0-6.81,1.35,15.65,15.65,0,0,0-5.26,3.75,17.49,17.49,0,0,0-3.42,5.53,18.33,18.33,0,0,0-1.24,6.73v.16a18.62,18.62,0,0,0,1.24,6.77,16.86,16.86,0,0,0,3.5,5.58,17.16,17.16,0,0,0,5.34,3.78,16.23,16.23,0,0,0,6.81,1.4,16.81,16.81,0,0,0,6.77-1.36,15.49,15.49,0,0,0,5.3-3.74,17.65,17.65,0,0,0,3.42-5.54,18.13,18.13,0,0,0,1.24-6.73Z"/><path d="M1064.13,596.27a26,26,0,0,1-6.09,8.85,29,29,0,0,1-9.4,5.89,32.53,32.53,0,0,1-12,2.15H1014.9V557.4h21.75a33.15,33.15,0,0,1,12,2.11,28.39,28.39,0,0,1,9.4,5.86,25.94,25.94,0,0,1,6.09,8.8,27.74,27.74,0,0,1,2.15,11v.16A28,28,0,0,1,1064.13,596.27Zm-10.67-11a18.24,18.24,0,0,0-1.24-6.77,15.89,15.89,0,0,0-3.42-5.34,15.23,15.23,0,0,0-5.3-3.46,18.47,18.47,0,0,0-6.85-1.24h-9.48v33.62h9.48a18.88,18.88,0,0,0,6.85-1.2,14.6,14.6,0,0,0,5.3-3.42,16,16,0,0,0,3.42-5.26,17.83,17.83,0,0,0,1.24-6.77Z"/><path d="M1077.19,613.16V557.4h42v10.92H1089.3v11.31h26.29v10.91H1089.3v11.71h30.27v10.91Z"/><path d="M1142.83,568.47v12h26.6v11.07h-26.6v21.59h-12.27V557.4H1173v11.07Z"/><path d="M1183.37,613.16V557.4h12.27v55.76Z"/><path d="M1248.68,613.16l-27-35.45v35.45h-12.11V557.4h11.32L1247,591.73V557.4h12.11v55.76Z"/><path d="M1224,349.17h0c-10.47-18.41-21-37.17-31.29-55.32L1186,282v0h7.62c8.54,0,17.36,0,26-.06,1.29,0,4-.51,5-2.29s.18-4.26-.61-5.55c-7.08-11.53-14.3-23.23-21.29-34.55-6.49-10.51-13.2-21.38-19.77-32.09a6.74,6.74,0,0,0-6.28-3.51h0c-19.14.05-38.59.05-57.4.05q-9.71,0-19.42,0c-2.13,0-4.27.21-5.42,1.76s-.75,3.65-.15,5.69l3.63,12.22c12.11,40.74,24.64,82.87,37,124.3a4.24,4.24,0,0,1-.39,3.59c-11.38,21.64-20.54,39.17-28.83,55.16-.49,1-.71,1.09-1.82,1.09-21.89-.06-41.53-.06-60.05,0h0c-1.17,0-1.48-.19-2-1.18-9.35-18.32-19-37.09-28.72-55.79a3.74,3.74,0,0,1-.25-3.16c13.22-44.45,26.61-89.65,39.57-133.36l.94-3.2c.5-1.67.92-3.79-.26-5.36s-3.28-1.77-5-1.77h-24.44c-17.08,0-34.75,0-52.12,0h0a6.29,6.29,0,0,0-5.85,3.34q-8.94,14.55-17.91,29.07c-7.55,12.24-15.35,24.89-23,37.36-1,1.58-1.64,4.09-.82,5.86,1,2.25,5,2.35,5.4,2.35,8.11.07,16.36.07,24.33.06h8.82l-.09.15-7.81,13.55c-10.13,17.55-20.6,35.71-31,53.53a7.11,7.11,0,0,0,0,7.94c24.4,42.14,48.51,83.89,71.65,124.09a7.11,7.11,0,0,0,6.85,4h0c46.45-.07,94.63-.07,143.2,0h0a7.1,7.1,0,0,0,6.85-4c23.9-41.51,48-83.26,71.65-124.09A7.17,7.17,0,0,0,1224,349.17ZM975,267.36V213h62.37Zm.89,11.16,64.92-56.6-34.37,115.84ZM970,286.81,1029.2,401.6l-96.38-50.32Zm63.41,127.13-33.27,57.63-62-107.36Zm106.07,62H1008c.14-.26.28-.5.42-.75l7.75-13.41c8.33-14.43,17-29.35,25.39-44,.58-1,.88-1.22,1.87-1.22h0c21.07.08,42.44.06,60.56,0h0c1.12,0,1.29.12,1.64.74,8.66,15.09,17.51,30.4,26.06,45.22Zm69.82-111.74-62,107.35-33.27-57.63Zm-98.88-151.08h63.12v54.33Zm62.17,65.37-31.26,59.81L1106.7,221.76Zm42.13,72.75-96.3,50.27,60-114.69ZM1183,272.87V224.52l29.9,48.35ZM965.6,224.5v48.34H935.75Z"/></svg>