<svg id="Layer_1" data-name="Layer 1" xmlns="http://www.w3.org/2000/svg" viewBox="0 0 1500 1500"><defs><style>.cls-1{fill:#fff;}</style></defs><title>Codefin logo</title><rect width="1500" height="1500"/><path class="cls-1" d="M1098.76,601.67l-19.82-35.13c-.77-1.37-1.47-2.78-2.34-4.52h5.14c7.43,0,14.89,0,22.34,0,25.21,0,51.27,0,76.92-.19,3.61,0,10.16-1.49,12.35-5.28s.25-10-1.78-13.34c-20.92-34.06-42.27-68.65-62.91-102.09-19.18-31.07-39-63.2-58.45-94.84-3.9-6.35-8.54-8.94-16-8.94h-.08c-56.43.13-113.81.13-169.3.12H827.11c-6.38,0-11.14.68-13.62,4-2.62,3.52-1.53,8.9,0,14.18l12,40.26c35.38,119.06,72,242.17,108.11,363.21,1.4,4.7,1,8.31-1.39,12.88C898.69,835.74,871.63,887.54,847,935c-2,3.77-3.68,4.82-8,4.82H839c-64.46-.19-122.5-.18-177.44,0-4.65,0-6.64-1.13-8.68-5.13C625.23,880.64,596.68,825.17,568,769.88c-2-3.89-2.29-7.14-1-11.59,38.85-130.64,78.23-263.51,116.3-392l3.44-11.59c1.26-4.26,2.37-9.61-.31-13.2s-8-4-12.34-4H601.79c-50.46,0-102.64,0-154-.1h-.05c-6.7,0-11.11,2.53-14.75,8.45-17.57,28.6-35.5,57.65-52.83,85.75-22.34,36.22-45.44,73.67-68.06,110.57-2.48,4-4.11,10.49-2.27,14.49,2.34,5.07,13.17,5.22,13.28,5.22,24,.21,48.32.2,71.87.18h26.63c1.41,0,2.84.07,4.44.16-1,1.79-1.8,3.29-2.66,4.77l-23.38,40.52c-29.85,51.74-60.71,105.23-91.25,157.74-4.17,7.16-4.13,13.09.13,20.46,72,124.31,143.22,247.71,211.74,366.76,4.18,7.25,9.29,10.21,17.66,10.21h0c137.54-.18,279.94-.18,423.25,0h0c8.35,0,13.47-3,17.65-10.24,70.58-122.63,141.83-246,211.75-366.74,4.23-7.3,4.28-13.22.17-20.43C1160.3,710.78,1129,655.31,1098.76,601.67ZM433.29,384.73v156.4H336.71Zm117.34,756.68c1.34-2.44,2.49-4.54,3.71-6.66q11.67-20.2,23.35-40.42c24.47-42.38,49.78-86.21,74.58-129.37,2.26-3.94,4.1-5.09,8.15-5.09h.09c62,.23,122.62.17,179,.07,3.8,0,5.71.5,7.54,3.69,25.41,44.29,51.37,89.25,76.48,132.72L949,1140.59c.16.27.3.55.45.85H550.61ZM455.05,528.54V358.29H650.36Zm203.29-149.9L551.69,738l-94.77-183.8ZM635,954,532.5,1131.48,341.56,800.79Zm-9.71-28.25-296-154.53,114.33-198ZM1069.7,541.24V384.82l96.72,156.42Zm88.72,259.56L967.5,1131.48,865,954Zm12.41-29.67L875,925.56l184.15-352.3ZM850.36,358.7H1048V528.81ZM949,739.59,841.56,378.27,1045.92,554.2Z"/></svg>