<svg id="Layer_1" data-name="Layer 1" xmlns="http://www.w3.org/2000/svg" viewBox="0 0 1500 844"><defs><style>.cls-1{font-size:100px;font-family:Gotham-Light, Gotham;}.cls-2{letter-spacing:0em;}.cls-3{letter-spacing:-0.02em;}.cls-4{letter-spacing:0em;}.cls-5{letter-spacing:-0.03em;}</style></defs><title>Codefin logo</title><text class="cls-1" transform="translate(212.72 443.15)"><tspan class="cls-2">P</tspan><tspan class="cls-3" x="66.3" y="0">ow</tspan><tspan x="211.4" y="0">e</tspan><tspan class="cls-3" x="269.8" y="0">r</tspan><tspan class="cls-4" x="307.3" y="0">ed </tspan><tspan class="cls-5" x="461.7" y="0">b</tspan><tspan x="525.2" y="0">y</tspan></text><path d="M932.94,608.3a25.84,25.84,0,0,1-11.07,5.14,36.35,36.35,0,0,1-7.33.68,29,29,0,0,1-11.39-2.23,28.07,28.07,0,0,1-9.08-6.1,27.55,27.55,0,0,1-6-9.12A29.24,29.24,0,0,1,886,585.44v-.16a29,29,0,0,1,2.15-11.19,28.68,28.68,0,0,1,6-9.16,27.6,27.6,0,0,1,9.16-6.21A29.72,29.72,0,0,1,915,556.45a37.31,37.31,0,0,1,7.13.63,29.54,29.54,0,0,1,5.85,1.76,24.39,24.39,0,0,1,4.86,2.71,33.25,33.25,0,0,1,4.15,3.5l-7.81,9a30,30,0,0,0-6.65-4.62,17,17,0,0,0-7.61-1.67,15.39,15.39,0,0,0-11.63,5.1,17.29,17.29,0,0,0-3.34,5.53,18.73,18.73,0,0,0-1.2,6.73v.16a19,19,0,0,0,1.2,6.77,17.58,17.58,0,0,0,3.3,5.58,15.5,15.5,0,0,0,5.1,3.78,15.33,15.33,0,0,0,6.57,1.4,17.09,17.09,0,0,0,8.09-1.76,31.18,31.18,0,0,0,6.57-4.78l7.8,7.89A40,40,0,0,1,932.94,608.3Z"/><path d="M1001.76,596.47a28.54,28.54,0,0,1-15.57,15.38,30.78,30.78,0,0,1-11.91,2.27,30.47,30.47,0,0,1-11.87-2.27,29.6,29.6,0,0,1-9.36-6.14,27.48,27.48,0,0,1-6.13-9.08,28.63,28.63,0,0,1-2.19-11.19v-.16A28.12,28.12,0,0,1,947,574.09a29.06,29.06,0,0,1,6.17-9.16,28.75,28.75,0,0,1,9.4-6.21,30.6,30.6,0,0,1,11.91-2.27,30.29,30.29,0,0,1,11.87,2.27,29.57,29.57,0,0,1,9.36,6.13,27.43,27.43,0,0,1,6.13,9.08,28.63,28.63,0,0,1,2.19,11.19v.16A28.09,28.09,0,0,1,1001.76,596.47Zm-10.59-11.19a18.45,18.45,0,0,0-1.24-6.77,16.72,16.72,0,0,0-8.88-9.36,16.34,16.34,0,0,0-6.77-1.39,16.76,16.76,0,0,0-6.81,1.35,15.65,15.65,0,0,0-5.26,3.75,17.49,17.49,0,0,0-3.42,5.53,18.33,18.33,0,0,0-1.24,6.73v.16a18.62,18.62,0,0,0,1.24,6.77,16.86,16.86,0,0,0,3.5,5.58,17.16,17.16,0,0,0,5.34,3.78,16.23,16.23,0,0,0,6.81,1.4,16.81,16.81,0,0,0,6.77-1.36,15.49,15.49,0,0,0,5.3-3.74,17.65,17.65,0,0,0,3.42-5.54,18.13,18.13,0,0,0,1.24-6.73Z"/><path d="M1064.13,596.27a26,26,0,0,1-6.09,8.85,29,29,0,0,1-9.4,5.89,32.53,32.53,0,0,1-12,2.15H1014.9V557.4h21.75a33.15,33.15,0,0,1,12,2.11,28.39,28.39,0,0,1,9.4,5.86,25.94,25.94,0,0,1,6.09,8.8,27.74,27.74,0,0,1,2.15,11v.16A28,28,0,0,1,1064.13,596.27Zm-10.67-11a18.24,18.24,0,0,0-1.24-6.77,15.89,15.89,0,0,0-3.42-5.34,15.23,15.23,0,0,0-5.3-3.46,18.47,18.47,0,0,0-6.85-1.24h-9.48v33.62h9.48a18.88,18.88,0,0,0,6.85-1.2,14.6,14.6,0,0,0,5.3-3.42,16,16,0,0,0,3.42-5.26,17.83,17.83,0,0,0,1.24-6.77Z"/><path d="M1077.19,613.16V557.4h42v10.92H1089.3v11.31h26.29v10.91H1089.3v11.71h30.27v10.91Z"/><path d="M1142.83,568.47v12h26.6v11.07h-26.6v21.59h-12.27V557.4H1173v11.07Z"/><path d="M1183.37,613.16V557.4h12.27v55.76Z"/><path d="M1248.68,613.16l-27-35.45v35.45h-12.11V557.4h11.32L1247,591.73V557.4h12.11v55.76Z"/><path d="M1224,349.17h0c-10.47-18.41-21-37.17-31.29-55.32L1186,282v0h7.62c8.54,0,17.36,0,26-.06,1.29,0,4-.51,5-2.29s.18-4.26-.61-5.55c-7.08-11.53-14.3-23.23-21.29-34.55-6.49-10.51-13.2-21.38-19.77-32.09a6.74,6.74,0,0,0-6.28-3.51h0c-19.14.05-38.59.05-57.4.05q-9.71,0-19.42,0c-2.13,0-4.27.21-5.42,1.76s-.75,3.65-.15,5.69l3.63,12.22c12.11,40.74,24.64,82.87,37,124.3a4.24,4.24,0,0,1-.39,3.59c-11.38,21.64-20.54,39.17-28.83,55.16-.49,1-.71,1.09-1.82,1.09-21.89-.06-41.53-.06-60.05,0h0c-1.17,0-1.48-.19-2-1.18-9.35-18.32-19-37.09-28.72-55.79a3.74,3.74,0,0,1-.25-3.16c13.22-44.45,26.61-89.65,39.57-133.36l.94-3.2c.5-1.67.92-3.79-.26-5.36s-3.28-1.77-5-1.77h-24.44c-17.08,0-34.75,0-52.12,0h0a6.29,6.29,0,0,0-5.85,3.34q-8.94,14.55-17.91,29.07c-7.55,12.24-15.35,24.89-23,37.36-1,1.58-1.64,4.09-.82,5.86,1,2.25,5,2.35,5.4,2.35,8.11.07,16.36.07,24.33.06h8.82l-.09.15-7.81,13.55c-10.13,17.55-20.6,35.71-31,53.53a7.11,7.11,0,0,0,0,7.94c24.4,42.14,48.51,83.89,71.65,124.09a7.11,7.11,0,0,0,6.85,4h0c46.45-.07,94.63-.07,143.2,0h0a7.1,7.1,0,0,0,6.85-4c23.9-41.51,48-83.26,71.65-124.09A7.17,7.17,0,0,0,1224,349.17ZM975,267.36V213h62.37Zm.89,11.16,64.92-56.6-34.37,115.84ZM970,286.81,1029.2,401.6l-96.38-50.32Zm63.41,127.13-33.27,57.63-62-107.36Zm106.07,62H1008c.14-.26.28-.5.42-.75l7.75-13.41c8.33-14.43,17-29.35,25.39-44,.58-1,.88-1.22,1.87-1.22h0c21.07.08,42.44.06,60.56,0h0c1.12,0,1.29.12,1.64.74,8.66,15.09,17.51,30.4,26.06,45.22Zm69.82-111.74-62,107.35-33.27-57.63Zm-98.88-151.08h63.12v54.33Zm62.17,65.37-31.26,59.81L1106.7,221.76Zm42.13,72.75-96.3,50.27,60-114.69ZM1183,272.87V224.52l29.9,48.35ZM965.6,224.5v48.34H935.75Z"/></svg>