<?xml version="1.0" standalone="no"?>
<!DOCTYPE svg PUBLIC "-//W3C//DTD SVG 20010904//EN"
 "http://www.w3.org/TR/2001/REC-SVG-20010904/DTD/svg10.dtd">
<svg version="1.0" xmlns="http://www.w3.org/2000/svg"
 width="4168.000000pt" height="4168.000000pt" viewBox="0 0 4168.000000 4168.000000"
 preserveAspectRatio="xMidYMid meet">
<metadata>
Created by potrace 1.11, written by Peter Selinger 2001-2013
</metadata>
<g transform="translate(0.000000,4168.000000) scale(0.100000,-0.100000)"
fill="#000000" stroke="none">
<path d="M20477 41675 c-1 -1 -119 -5 -262 -9 -143 -4 -289 -8 -325 -10 -36
-3 -121 -7 -190 -11 -69 -3 -150 -8 -180 -10 -30 -2 -98 -7 -150 -10 -52 -3
-117 -8 -145 -10 -134 -12 -278 -25 -350 -30 -44 -3 -91 -8 -105 -10 -14 -3
-56 -7 -95 -10 -38 -4 -81 -8 -95 -10 -14 -2 -54 -6 -90 -10 -36 -4 -76 -8
-90 -10 -14 -2 -50 -6 -80 -10 -80 -9 -346 -44 -460 -61 -393 -57 -808 -128
-1060 -180 -41 -9 -86 -18 -100 -20 -65 -12 -335 -70 -510 -110 -1658 -381
-3178 -930 -4709 -1701 -201 -101 -369 -187 -375 -192 -6 -5 -59 -33 -117 -64
-113 -59 -157 -84 -279 -152 -41 -24 -92 -52 -113 -64 -1170 -657 -2415 -1542
-3446 -2449 -425 -375 -586 -526 -1006 -947 -348 -348 -419 -421 -610 -630
-55 -60 -107 -116 -115 -125 -13 -13 -123 -138 -367 -417 -279 -319 -864
-1065 -1129 -1438 -555 -785 -1012 -1521 -1439 -2320 -92 -173 -400 -784 -446
-885 -9 -19 -54 -118 -101 -220 -47 -102 -122 -270 -168 -375 -45 -104 -88
-203 -95 -220 -210 -478 -531 -1366 -733 -2030 -69 -225 -219 -764 -247 -885
-2 -8 -26 -107 -54 -220 -102 -417 -230 -1027 -280 -1340 -6 -36 -13 -76 -16
-90 -14 -80 -36 -214 -44 -275 -6 -38 -19 -128 -30 -200 -19 -129 -56 -398
-65 -485 -3 -25 -7 -61 -10 -80 -8 -51 -34 -302 -34 -320 0 -8 -2 -28 -5 -45
-3 -16 -8 -66 -12 -110 -3 -44 -8 -93 -10 -110 -3 -16 -7 -68 -10 -115 -3 -47
-7 -99 -10 -115 -2 -17 -6 -80 -10 -140 -3 -61 -8 -132 -10 -160 -2 -27 -7
-106 -11 -175 -4 -69 -8 -143 -9 -165 -26 -373 -25 -1671 0 -2025 1 -19 5 -93
9 -165 4 -71 9 -148 11 -170 1 -22 6 -92 10 -155 4 -63 8 -126 10 -140 2 -14
6 -68 10 -120 3 -52 8 -106 10 -120 2 -14 7 -63 10 -110 4 -47 9 -92 10 -100
2 -8 6 -44 9 -80 13 -130 16 -156 26 -245 6 -49 13 -110 16 -135 3 -25 7 -56
9 -70 2 -14 7 -50 10 -80 3 -30 10 -80 15 -110 5 -30 12 -77 15 -105 4 -27 10
-77 15 -110 5 -33 12 -78 15 -100 27 -177 43 -276 79 -480 45 -259 65 -360
112 -590 80 -391 189 -852 286 -1205 27 -102 56 -207 63 -235 77 -288 285
-944 418 -1315 25 -69 59 -165 77 -215 130 -362 420 -1070 576 -1404 24 -51
44 -95 44 -97 0 -1 25 -55 55 -118 30 -64 80 -168 110 -231 295 -620 706
-1365 1089 -1973 66 -106 130 -207 140 -225 119 -194 463 -695 753 -1094 214
-295 668 -868 913 -1153 26 -30 80 -93 120 -140 40 -47 105 -121 145 -165 40
-44 87 -98 106 -120 19 -22 36 -42 39 -45 3 -3 37 -39 75 -80 248 -269 336
-361 645 -671 298 -298 519 -511 664 -640 40 -35 57 -51 147 -134 30 -28 95
-86 144 -129 50 -43 104 -91 120 -105 17 -14 77 -67 135 -116 58 -49 110 -94
116 -100 6 -5 42 -35 79 -65 38 -30 76 -62 85 -71 10 -9 120 -99 246 -199 758
-606 1607 -1191 2419 -1670 134 -79 334 -194 400 -229 44 -24 85 -47 90 -51
54 -41 796 -424 1105 -570 1126 -534 2155 -921 3340 -1257 199 -56 839 -219
965 -246 39 -8 134 -29 212 -46 310 -67 808 -163 958 -185 22 -4 63 -10 90
-15 46 -9 195 -32 290 -46 22 -3 51 -7 65 -10 26 -4 162 -23 215 -31 153 -20
492 -61 625 -74 58 -6 121 -13 140 -15 49 -6 212 -20 340 -30 36 -3 90 -7 120
-10 30 -2 93 -7 140 -10 47 -3 110 -8 140 -10 30 -2 118 -7 195 -10 77 -4 156
-8 175 -10 76 -7 653 -19 955 -19 293 0 775 10 935 19 36 2 126 6 200 10 74 3
155 8 180 10 25 2 92 7 150 10 58 4 121 8 140 10 19 2 73 7 120 10 47 3 105 8
130 10 25 3 70 7 100 10 30 3 73 8 95 10 22 3 69 7 105 10 55 5 148 15 530 61
25 3 56 7 70 9 14 3 48 7 75 11 28 3 62 7 77 10 15 2 105 16 200 30 151 22
475 75 548 89 14 2 36 7 50 10 14 2 36 6 50 9 87 14 178 32 350 67 107 22 204
41 215 43 11 2 115 25 230 51 969 216 1910 499 2855 858 233 89 636 251 715
287 11 5 118 52 237 104 323 141 555 251 938 442 301 151 447 227 730 381 209
114 794 457 935 548 56 36 415 266 476 305 116 74 639 437 787 547 257 190
442 329 547 412 119 94 292 231 330 262 91 75 331 274 335 279 3 3 21 18 40
34 39 32 114 97 259 226 53 46 112 98 131 115 458 404 1035 977 1530 1520 35
39 67 72 70 75 11 10 348 398 425 490 44 52 82 97 85 100 3 3 32 39 65 80 33
41 63 77 66 80 14 13 278 347 404 511 423 553 807 1109 1168 1691 167 269 413
688 507 863 18 33 38 69 45 80 7 11 39 70 70 130 32 61 77 144 100 185 123
225 407 806 547 1120 33 74 72 160 85 190 81 177 241 562 345 830 398 1027
723 2108 948 3160 69 319 189 970 215 1160 3 25 10 70 15 100 5 30 12 75 15
99 3 23 7 55 9 70 3 14 7 49 11 76 3 28 8 57 10 65 2 8 6 42 10 75 3 33 10 87
15 120 5 33 12 89 15 125 3 36 8 72 10 80 2 8 6 47 10 85 3 39 7 86 10 105 5
38 12 102 20 195 3 33 8 76 10 95 3 19 7 76 10 125 3 50 8 101 10 115 2 14 7
72 11 130 3 58 8 123 9 145 2 22 7 94 10 160 4 66 8 143 10 171 2 28 7 133 10
235 4 101 9 213 11 249 5 102 5 1050 0 1195 -3 72 -8 204 -11 295 -3 91 -8
190 -10 220 -2 30 -7 102 -10 160 -9 162 -22 347 -30 430 -3 25 -7 81 -10 125
-3 44 -8 96 -10 115 -3 19 -9 85 -15 145 -5 61 -12 126 -14 145 -3 19 -7 62
-10 95 -4 33 -8 76 -11 95 -2 19 -7 55 -9 80 -13 106 -43 338 -56 425 -5 33
-12 80 -15 105 -11 84 -95 597 -115 706 -11 60 -23 121 -25 137 -3 15 -26 127
-51 250 -24 122 -47 233 -50 247 -2 14 -7 36 -10 50 -3 14 -8 34 -10 45 -29
151 -237 992 -275 1110 -5 17 -27 95 -50 175 -56 200 -94 326 -211 685 -119
369 -240 715 -333 950 -13 33 -38 98 -55 145 -18 47 -38 99 -45 115 -7 17 -25
62 -40 100 -15 39 -38 95 -51 125 -13 30 -52 125 -87 210 -36 85 -76 180 -90
210 -14 30 -51 114 -82 185 -246 559 -567 1192 -950 1870 -219 387 -693 1136
-963 1520 -216 308 -612 843 -733 990 -10 11 -64 78 -120 149 -57 72 -126 158
-154 192 -49 60 -328 390 -380 449 -15 17 -52 59 -83 95 -84 96 -249 278 -303
335 -26 28 -57 61 -69 75 -187 218 -903 926 -1270 1256 -97 88 -247 221 -291
259 -309 270 -677 573 -954 785 -60 46 -112 87 -115 90 -12 13 -401 299 -585
430 -110 78 -333 231 -495 339 -334 223 -452 298 -786 501 -158 96 -499 295
-619 360 -33 18 -94 52 -135 75 -76 42 -161 88 -345 185 -1165 616 -2504 1156
-3805 1535 -450 131 -760 212 -1188 309 -207 48 -710 152 -822 171 -19 3 -82
14 -140 25 -58 11 -175 31 -260 45 -85 14 -167 28 -181 30 -27 5 -501 72 -559
80 -87 11 -199 25 -245 29 -27 3 -90 10 -140 16 -49 6 -112 13 -140 15 -27 3
-70 8 -95 10 -25 3 -72 7 -105 10 -33 3 -85 7 -115 10 -30 3 -84 7 -120 10
-36 3 -85 7 -110 10 -41 4 -106 8 -300 20 -240 15 -283 17 -630 31 -144 6
-1047 13 -1053 9z"/>
</g>
</svg>
